#!OML:ASF E:\Mandelcareful walks\Project 1\Capture day 1\Session 1\Subject1.ASF
:FULLY-SPECIFIED
:DEGREES
1
root -19.9317 16.809 5.79076 172.829 85.0324 168.421
lowerback -8.01313 -0.415398 -3.69153
upperback 1.14281 -0.237942 0.969913
thorax 5.71811 -0.253096 3.06226
lowerneck -23.6961 1.12061 -2.11972
upperneck 32.7902 3.50526 -0.622036
head 15.5103 1.33417 0.865912
rclavicle 2.68359e-015 -3.97569e-016
rhumerus -28.1348 -12.7255 -82.8218
rradius 23.8523
rwrist -3.39422
rhand -10.2208 -30.8829
rfingers 7.12502
rthumb 15.771 -60.2604
lclavicle 2.68359e-015 -3.97569e-016
lhumerus -24.3723 11.4435 89.216
lradius 19.0015
lwrist 3.91036
lhand -21.4156 -11.3517
lfingers 7.12502
lthumb 4.9731 18.5699
rfemur -2.9092 3.24948 12.2989
rtibia 14.4784
rfoot -17.583 -22.0795
rtoes 5.19048
lfemur -6.37047 -5.81763 -16.4656
ltibia 23.5918
lfoot -22.9145 20.0485
ltoes -2.04633
2
root -19.9434 16.8015 5.80407 176.331 84.8495 171.861
lowerback -7.95897 -0.48172 -3.64614
upperback 1.11581 -0.339766 1.09008
thorax 5.66773 -0.30236 3.14953
lowerneck -23.5876 1.11776 -2.09378
upperneck 32.6677 3.48483 -0.644952
head 15.429 1.32759 0.844196
rclavicle 1.59152e-014 3.97569e-015
rhumerus -28.1068 -13.0684 -82.7374
rradius 23.7744
rwrist -3.0039
rhand -10.237 -31.1308
rfingers 7.12502
rthumb 15.7554 -60.5095
lclavicle 1.59152e-014 3.97569e-015
lhumerus -24.3703 11.8908 89.0695
lradius 18.7939
lwrist 3.44866
lhand -21.4058 -12.2126
lfingers 7.12502
lthumb 4.98256 17.7088
rfemur -2.87172 4.34475 12.7681
rtibia 14.3099
rfoot -18.068 -23.181
rtoes 5.91675
lfemur -6.66648 -5.63546 -16.0206
ltibia 23.7708
lfoot -22.7897 19.6275
ltoes -1.87049
3
root -19.9535 16.8 5.80406 175.172 84.9037 170.688
lowerback -7.81926 -0.449109 -3.72075
upperback 1.09425 -0.292691 1.05863
thorax 5.56217 -0.278492 3.16445
lowerneck -23.5526 1.10701 -2.12003
upperneck 32.6263 3.48123 -0.659064
head 15.4016 1.32142 0.840906
rclavicle -3.23025e-016 5.1684e-015
rhumerus -28.1631 -12.7779 -82.8501
rradius 23.9521
rwrist -3.33152
rhand -10.28 -31.3737
rfingers 7.12502
rthumb 15.714 -60.7556
lclavicle -3.23025e-016 5.1684e-015
lhumerus -24.3882 12.5918 88.8634
lradius 18.5738
lwrist 2.72612
lhand -21.4312 -12.7677
lfingers 7.12502
lthumb 4.95802 17.1543
rfemur -3.00005 4.33697 12.6413
rtibia 14.4156
rfoot -18.0566 -23.1012
rtoes 5.63332
lfemur -6.67524 -5.68918 -16.1279
ltibia 23.7079
lfoot -22.8409 19.6393
ltoes -1.26806
4
root -19.9584 16.8011 5.80373 176.413 84.7833 171.903
lowerback -7.77163 -0.446959 -3.58763
upperback 1.08669 -0.3049 1.06508
thorax 5.52703 -0.279564 3.09434
lowerneck -23.5698 1.09789 -2.11237
upperneck 32.6063 3.46237 -0.658422
head 15.3963 1.31431 0.835986
rclavicle 1.11816e-015 -8.74653e-015
rhumerus -28.1897 -12.7345 -82.8852
rradius 24.0274
rwrist -3.48041
rhand -10.4528 -31.2629
rfingers 7.12502
rthumb 15.5476 -60.6579
lclavicle 1.11816e-015 -8.74653e-015
lhumerus -24.4587 13.0024 88.7867
lradius 18.4634
lwrist 1.82909
lhand -22.041 -12.4866
lfingers 7.12502
lthumb 4.36918 17.4483
rfemur -3.04881 4.06193 12.7379
rtibia 14.4939
rfoot -17.9285 -23.0279
rtoes 5.66483
lfemur -6.72743 -5.76635 -16.0077
ltibia 23.6747
lfoot -22.7735 19.5727
ltoes -1.01705
5
root -19.9723 16.8028 5.80385 174.744 84.8881 170.271
lowerback -7.51398 -0.372481 -3.70453
upperback 1.06646 -0.201689 1.01608
thorax 5.35161 -0.22759 3.12115
lowerneck -23.5409 1.09647 -2.12737
upperneck 32.5514 3.44718 -0.622546
head 15.3626 1.31204 0.84934
rclavicle -4.67144e-015 7.35503e-015
rhumerus -28.1991 -12.8624 -82.8417
rradius 24.0103
rwrist -3.419
rhand -10.8218 -30.9351
rfingers 7.12502
rthumb 15.1921 -60.3573
lclavicle -4.67144e-015 7.35503e-015
lhumerus -24.9945 13.5823 88.5238
lradius 18.846
lwrist 0.522257
lhand -22.03 -13.1402
lfingers 7.12502
lthumb 4.37983 16.7945
rfemur -3.17653 3.70249 12.5462
rtibia 14.6343
rfoot -17.7877 -22.6233
rtoes 5.91018
lfemur -6.65962 -5.87226 -16.1752
ltibia 23.5805
lfoot -22.9668 19.6703
ltoes -0.0792996
6
root -19.9768 16.802 5.80681 174.418 84.7747 169.988
lowerback -7.38586 -0.401026 -3.79704
upperback 1.07264 -0.235903 1.01163
thorax 5.2889 -0.246089 3.16438
lowerneck -23.5181 1.10612 -2.15092
upperneck 32.5482 3.45977 -0.591325
head 15.3544 1.31961 0.868704
rclavicle 9.93923e-017 5.1684e-015
rhumerus -28.1764 -13.0454 -82.7922
rradius 23.9389
rwrist -3.30599
rhand -10.8581 -30.8181
rfingers 7.12502
rthumb 15.1572 -60.243
lclavicle 9.93923e-017 5.1684e-015
lhumerus -26.3509 13.4738 88.3408
lradius 21.003
lwrist 0.00106342
lhand -22.2315 -13.3161
lfingers 7.12502
lthumb 4.18518 16.6225
rfemur -3.1121 3.36337 12.5026
rtibia 14.6075
rfoot -17.7629 -22.4373
rtoes 5.6514
lfemur -6.65823 -5.77639 -16.1929
ltibia 23.5979
lfoot -23.0567 19.4181
ltoes 0.439261
7
root -19.9806 16.8027 5.80818 175.008 84.7414 170.535
lowerback -7.42003 -0.387032 -3.7328
upperback 1.11693 -0.220414 0.991687
thorax 5.35292 -0.238295 3.10922
lowerneck -23.619 1.09172 -2.15836
upperneck 32.5636 3.42622 -0.547711
head 15.3832 1.3087 0.883029
rclavicle 1.41137e-014 2.28602e-014
rhumerus -27.9895 -13.5551 -82.7187
rradius 23.7
rwrist -2.95957
rhand -10.5014 -30.8744
rfingers 7.12502
rthumb 15.5007 -60.273
lclavicle 1.41137e-014 2.28602e-014
lhumerus -26.3355 13.704 88.216
lradius 21.2874
lwrist -0.17163
lhand -22.2407 -12.4498
lfingers 7.12502
lthumb 4.17637 17.489
rfemur -3.13426 3.14503 12.5399
rtibia 14.5258
rfoot -17.5889 -22.3121
rtoes 5.41642
lfemur -6.75707 -5.71651 -16.1373
ltibia 23.6545
lfoot -22.8807 19.4254
ltoes -0.406696
8
root -19.9877 16.8034 5.81149 178.311 84.6766 173.764
lowerback -7.4527 -0.382586 -3.4453
upperback 1.15097 -0.243072 1.05709
thorax 5.40728 -0.243289 3.01273
lowerneck -23.7246 1.0765 -2.23137
upperneck 32.5317 3.39743 -0.460514
head 15.3884 1.29774 0.926969
rclavicle 4.27387e-015 4.37326e-015
rhumerus -27.8132 -13.7595 -82.712
rradius 23.5553
rwrist -2.82713
rhand -10.2787 -30.8166
rfingers 7.12502
rthumb 15.7152 -60.1985
lclavicle 4.27387e-015 4.37326e-015
lhumerus -26.2835 13.9473 88.1251
lradius 21.3502
lwrist -0.123808
lhand -22.0317 -12.8556
lfingers 7.12502
lthumb 4.37813 17.0792
rfemur -3.14527 3.45176 12.9017
rtibia 14.3851
rfoot -17.6803 -22.6373
rtoes 5.95731
lfemur -6.94941 -5.85618 -15.7789
ltibia 23.7568
lfoot -22.7908 19.4728
ltoes -0.571994
9
root -19.988 16.803 5.81395 178.406 84.4754 173.899
lowerback -7.40885 -0.422082 -3.47026
upperback 1.19993 -0.29376 1.03962
thorax 5.43791 -0.270276 3.00248
lowerneck -23.7569 1.08777 -2.23396
upperneck 32.4996 3.39681 -0.42062
head 15.3792 1.30235 0.94378
rclavicle -2.8948e-015 -3.37934e-015
rhumerus -27.8 -13.5684 -82.797
rradius 23.6266
rwrist -3.04206
rhand -10.2399 -30.6269
rfingers 7.12502
rthumb 15.7526 -60.0058
lclavicle -2.8948e-015 -3.37934e-015
lhumerus -26.3242 14.0011 88.0735
lradius 21.4456
lwrist 0.156637
lhand -21.806 -12.9292
lfingers 7.12502
lthumb 4.59612 17.001
rfemur -2.94107 3.59632 12.9458
rtibia 14.2084
rfoot -17.7832 -22.9576
rtoes 6.08468
lfemur -7.00007 -5.97353 -15.7481
ltibia 23.8602
lfoot -22.7818 19.3951
ltoes -0.159656
10
root -19.9885 16.8069 5.81332 178.024 84.4824 173.454
lowerback -7.48644 -0.388099 -3.46286
upperback 1.2326 -0.242757 0.975462
thorax 5.51184 -0.245772 2.93746
lowerneck -23.7968 1.10813 -2.16518
upperneck 32.4542 3.39107 -0.416221
head 15.3677 1.30827 0.932208
rclavicle -5.87657e-015 1.63003e-014
rhumerus -27.7825 -13.4476 -82.9089
rradius 23.7248
rwrist -3.22598
rhand -10.2182 -30.6884
rfingers 7.12502
rthumb 15.7735 -60.0657
lclavicle -5.87657e-015 1.63003e-014
lhumerus -26.3612 14.034 87.965
lradius 21.4985
lwrist 0.121195
lhand -21.5009 -12.5743
lfingers 7.12502
lthumb 4.89066 17.3492
rfemur -2.96336 3.34426 12.863
rtibia 14.0537
rfoot -17.4978 -22.8381
rtoes 5.73703
lfemur -7.12247 -5.8948 -15.7985
ltibia 23.9453
lfoot -22.7645 19.4228
ltoes -0.39417
11
root -20.0002 16.8111 5.81757 178.582 84.4602 173.911
lowerback -7.43194 -0.393672 -3.44689
upperback 1.21065 -0.254445 0.987792
thorax 5.45866 -0.249858 2.93979
lowerneck -23.8182 1.13464 -2.20612
upperneck 32.4117 3.41777 -0.349037
head 15.3494 1.32368 0.972063
rclavicle -2.04003e-014 7.15625e-015
rhumerus -27.7392 -13.4058 -82.94
rradius 23.7594
rwrist -3.2347
rhand -10.1481 -30.7682
rfingers 7.12502
rthumb 15.841 -60.1402
lclavicle -2.04003e-014 7.15625e-015
lhumerus -26.3594 14.5563 87.7125
lradius 21.3297
lwrist -0.636265
lhand -21.2598 -12.4548
lfingers 7.12502
lthumb 5.12347 17.4632
rfemur -3.10919 3.67387 12.9446
rtibia 14.0086
rfoot -17.5463 -23.1884
rtoes 6.01543
lfemur -7.32077 -5.89256 -15.7116
ltibia 23.9697
lfoot -22.6829 19.432
ltoes -0.512617
12
root -20.002 16.8099 5.81707 178.009 84.3865 173.322
lowerback -7.40936 -0.418375 -3.50361
upperback 1.20425 -0.282957 0.987243
thorax 5.4418 -0.265298 2.96777
lowerneck -23.7771 1.177 -2.24279
upperneck 32.4143 3.49641 -0.34466
head 15.3396 1.35396 0.995368
rclavicle -9.65348e-015 8.34896e-015
rhumerus -27.762 -13.2203 -82.9325
rradius 23.7941
rwrist -3.39003
rhand -10.0759 -30.5781
rfingers 7.12502
rthumb 15.9105 -59.9445
lclavicle -9.65348e-015 8.34896e-015
lhumerus -26.4201 15.029 87.5194
lradius 21.1766
lwrist -1.18977
lhand -21.3161 -12.4286
lfingers 7.12502
lthumb 5.06917 17.4908
rfemur -3.12592 3.57153 12.861
rtibia 14.0486
rfoot -17.6453 -23.0771
rtoes 6.20713
lfemur -7.32209 -5.86529 -15.7803
ltibia 23.9413
lfoot -22.5627 19.3397
ltoes -0.571403
13
root -20.0028 16.8102 5.81668 178.922 84.327 174.183
lowerback -7.42524 -0.389196 -3.38942
upperback 1.16939 -0.25375 0.975627
thorax 5.4109 -0.245914 2.89458
lowerneck -23.7026 1.22197 -2.10865
upperneck 32.4517 3.5563 -0.459507
head 15.3457 1.38127 0.93609
rclavicle -2.52208e-015 5.1684e-015
rhumerus -27.8427 -13.1866 -82.9398
rradius 23.8245
rwrist -3.5382
rhand -10.2126 -30.4473
rfingers 7.12502
rthumb 15.7789 -59.8242
lclavicle -2.52208e-015 5.1684e-015
lhumerus -26.5293 15.0023 87.4226
lradius 21.1464
lwrist -1.21373
lhand -21.2945 -12.6337
lfingers 7.12502
lthumb 5.09004 17.2852
rfemur -3.20983 3.42015 12.934
rtibia 14.1374
rfoot -17.7124 -22.9263
rtoes 6.24129
lfemur -7.35226 -5.71723 -15.6864
ltibia 23.8958
lfoot -22.432 19.1688
ltoes -0.90816
14
root -20.0051 16.8088 5.81887 177.006 84.2227 172.262
lowerback -7.33643 -0.353849 -3.58756
upperback 1.14163 -0.185987 0.865177
thorax 5.32689 -0.21473 2.89873
lowerneck -23.5984 1.22656 -1.94213
upperneck 32.4582 3.53446 -0.562829
head 15.3317 1.38067 0.859013
rclavicle 2.74571e-015 -1.39149e-015
rhumerus -27.986 -13.3082 -82.9527
rradius 23.8988
rwrist -3.59128
rhand -10.5838 -30.3486
rfingers 7.12502
rthumb 15.4214 -59.7534
lclavicle 2.74571e-015 -1.39149e-015
lhumerus -26.61 14.8605 87.3137
lradius 21.0662
lwrist -1.24184
lhand -21.0751 -13.0265
lfingers 7.12502
lthumb 5.30184 16.8872
rfemur -3.22794 3.39409 12.7213
rtibia 14.2476
rfoot -17.8785 -22.9344
rtoes 6.45254
lfemur -7.33576 -5.71468 -15.8933
ltibia 23.8332
lfoot -22.4347 19.0679
ltoes -0.787345
